<?xml version="1.0" encoding="UTF-8"?>
<svg width="100px" height="100px" viewBox="0 0 100 100" version="1.1" xmlns="http://www.w3.org/2000/svg" xmlns:xlink="http://www.w3.org/1999/xlink">
    <!-- Generator: Sketch 47.1 (45422) - http://www.bohemiancoding.com/sketch -->
    <title>guest-entries</title>
    <desc>Created with Sketch.</desc>
    <defs></defs>
    <g id="Icons" stroke="none" stroke-width="1" fill="none" fill-rule="evenodd">
        <g id="guest-entries">
            <circle id="Oval" fill="#8F98A3" cx="50" cy="50" r="50"></circle>
            <path d="M70.8584567,66.5236445 C70.8584567,68.8850419 70.146145,70.7390039 68.7215003,72.0855859 C67.2968555,73.4321679 65.4038628,74.1054488 63.0424653,74.1054488 L37.4575347,74.1054488 C35.0961372,74.1054488 33.2031445,73.4321679 31.7784997,72.0855859 C30.353855,70.7390039 29.6415433,68.8850419 29.6415433,66.5236445 C29.6415433,65.3331879 29.6854529,64.1817799 29.7732735,63.0693861 C29.861094,61.9569922 30.0464902,60.7324016 30.3294676,59.3955774 C30.612445,58.0587532 30.9783585,56.8536779 31.4272192,55.7803155 C31.8760799,54.706953 32.4956935,53.6970316 33.2860786,52.750521 C34.0764637,51.8040105 34.9888081,51.0770622 36.0231393,50.5696545 L33.3885354,44.1295118 L39.6530379,44.1295118 C39.2236929,42.8805082 39.0090236,41.6315233 39.0090236,40.3825197 C39.0090236,40.1483315 39.028539,39.8360853 39.0675704,39.4457716 C35.2815281,38.6651444 33.3885354,37.7284057 33.3885354,36.6355275 C33.3885354,35.5231337 35.4376512,34.5571219 39.5359444,33.7374633 C39.867711,32.5274911 40.3702322,31.21996 41.0435232,29.8148309 C41.7168143,28.4097019 42.4047317,27.2973247 43.1072963,26.4776661 C43.7317981,25.7555859 44.4733828,25.3945512 45.3320728,25.3945512 C45.9175433,25.3945512 46.7371896,25.6970397 47.7910364,26.3020258 C48.8448832,26.9070119 49.6645296,27.2095005 50.25,27.2095005 C50.8354704,27.2095005 51.6551168,26.9070119 52.7089636,26.3020258 C53.7628104,25.6970397 54.5824567,25.3945512 55.1679272,25.3945512 C56.0266172,25.3945512 56.7682019,25.7555859 57.3927037,26.4776661 C58.0952683,27.2973247 58.7831857,28.4097019 59.4564768,29.8148309 C60.1297678,31.21996 60.632289,32.5274911 60.9640556,33.7374633 C65.0623488,34.5571219 67.1114646,35.5231337 67.1114646,36.6355275 C67.1114646,37.7284057 65.2184719,38.6651444 61.4324296,39.4457716 C61.5690394,41.0265419 61.3738855,42.587773 60.8469621,44.1295118 L67.1114646,44.1295118 L64.7110477,50.7160214 C65.9405357,51.3600389 66.9894878,52.3016564 67.8579357,53.5409022 C68.7263835,54.780148 69.3655125,56.1803771 69.7753418,57.7416317 C70.1851711,59.3028862 70.4681443,60.7811769 70.6242697,62.1765481 C70.7803952,63.5719193 70.8584567,65.020937 70.8584567,66.5236445 Z M46.5030079,70.3584567 L49.313252,57.2439843 L46.5030079,53.4969921 L42.7560157,51.6234961 L46.5030079,70.3584567 Z M53.9969921,70.3584567 L57.7439843,51.6234961 L53.9969921,53.4969921 L51.186748,57.2439843 L53.9969921,70.3584567 Z M58.6807323,40.7923469 C58.6417009,40.7142842 58.6026702,40.655738 58.5636388,40.6167067 C58.368482,40.4605812 57.4317433,40.3825197 55.7533947,40.3825197 C54.387297,40.3825197 52.757762,40.5679159 50.8647409,40.9387138 C50.7281311,40.9777452 50.5232195,40.9972606 50.25,40.9972606 C49.9767805,40.9972606 49.7718689,40.9777452 49.6352591,40.9387138 C47.742238,40.5679159 46.112703,40.3825197 44.7466053,40.3825197 C43.0682567,40.3825197 42.131518,40.4605812 41.9363612,40.6167067 C41.8973298,40.655738 41.8582991,40.7142842 41.8192677,40.7923469 C41.8582991,41.1436292 41.8973298,41.407087 41.9363612,41.5827281 C41.9753926,41.6412751 42.0485753,41.7047002 42.1559115,41.773005 C42.2632478,41.8413099 42.3364305,41.9437657 42.3754619,42.0803755 C42.4144932,42.1584382 42.4876759,42.3584709 42.5950122,42.6804797 C42.7023484,43.0024884 42.7706523,43.2025212 42.7999258,43.2805839 C42.8291993,43.3586466 42.902382,43.5245274 43.0194761,43.7782313 C43.1365702,44.0319352 43.2195106,44.197816 43.2682998,44.2758787 C43.317089,44.3539414 43.4049083,44.4905491 43.5317602,44.685706 C43.6586121,44.8808628 43.7757045,45.0125916 43.8830407,45.0808965 C43.990377,45.1492014 44.1269847,45.2418995 44.292868,45.3589936 C44.4587513,45.4760877 44.6295109,45.5541492 44.8051521,45.5931806 C44.9807932,45.632212 45.1808259,45.6712427 45.4052563,45.7102741 C45.6296866,45.7493055 45.8687501,45.7688209 46.122454,45.7688209 C46.8250185,45.7688209 47.4007225,45.6468497 47.8495832,45.4029037 C48.2984438,45.1589576 48.6155689,44.8662268 48.8009679,44.5247024 C48.9863669,44.183178 49.1278534,43.8465375 49.2254318,43.5147709 C49.3230102,43.1830043 49.4352237,42.8951523 49.5620757,42.6512063 C49.6889276,42.4072603 49.8596872,42.2852891 50.0743597,42.2852891 L50.4256403,42.2852891 C50.6403128,42.2852891 50.8110724,42.4072603 50.9379243,42.6512063 C51.0647763,42.8951523 51.1769898,43.1830043 51.2745682,43.5147709 C51.3721466,43.8465375 51.5136331,44.183178 51.6990321,44.5247024 C51.8844311,44.8662268 52.2015562,45.1589576 52.6504168,45.4029037 C53.0992775,45.6468497 53.6749815,45.7688209 54.377546,45.7688209 C54.6312499,45.7688209 54.8703134,45.7493055 55.0947437,45.7102741 C55.3191741,45.6712427 55.5192068,45.632212 55.6948479,45.5931806 C55.8704891,45.5541492 56.0412487,45.4760877 56.207132,45.3589936 C56.3730153,45.2418995 56.509623,45.1492014 56.6169593,45.0808965 C56.7242955,45.0125916 56.8413879,44.8808628 56.9682398,44.685706 C57.0950917,44.4905491 57.182911,44.3539414 57.2317002,44.2758787 C57.2804894,44.197816 57.3634298,44.0319352 57.4805239,43.7782313 C57.597618,43.5245274 57.6708007,43.3586466 57.7000742,43.2805839 C57.7293477,43.2025212 57.7976516,43.0024884 57.9049878,42.6804797 C58.0123241,42.3584709 58.0855068,42.1584382 58.1245381,42.0803755 C58.1635695,41.9437657 58.2367522,41.8413099 58.3440885,41.773005 C58.4514247,41.7047002 58.5246074,41.6412751 58.5636388,41.5827281 C58.6026702,41.407087 58.6417009,41.1436292 58.6807323,40.7923469 Z" id="Guest" fill="#FFFFFF"></path>
        </g>
    </g>
</svg>